<?xml version="1.0" standalone="no"?>
<!DOCTYPE svg PUBLIC "-//W3C//DTD SVG 20010904//EN"
 "http://www.w3.org/TR/2001/REC-SVG-20010904/DTD/svg10.dtd">
<svg version="1.0" xmlns="http://www.w3.org/2000/svg"
 width="512.000000pt" height="512.000000pt" viewBox="0 0 512.000000 512.000000"
 preserveAspectRatio="xMidYMid meet">

<g transform="translate(0.000000,512.000000) scale(0.100000,-0.100000)"
fill="#000000" stroke="none">
<path d="M2475 4886 c-44 -20 -83 -60 -105 -108 -19 -42 -20 -81 -20 -1408 l0
-1365 -467 467 c-354 353 -479 472 -513 487 -182 82 -361 -104 -273 -284 22
-45 1320 -1342 1368 -1367 26 -14 59 -21 95 -21 36 0 69 7 95 21 48 25 1346
1322 1368 1367 24 49 29 93 17 144 -31 128 -169 195 -290 140 -34 -15 -159
-134 -512 -487 l-468 -467 0 1366 0 1365 -25 51 c-37 74 -89 107 -174 110 -41
2 -77 -2 -96 -11z"/>
<path d="M329 2317 c-24 -13 -57 -43 -74 -66 l-30 -43 0 -571 c0 -619 -1 -599
56 -757 97 -266 333 -502 599 -599 166 -60 40 -56 1680 -56 1411 0 1499 1
1560 18 200 56 337 132 474 265 137 134 218 271 279 477 20 67 21 98 24 635
l4 565 -24 45 c-35 67 -93 103 -171 108 -49 3 -71 0 -103 -17 -53 -27 -98 -82
-112 -137 -7 -28 -11 -213 -11 -533 0 -315 -4 -509 -11 -543 -6 -29 -29 -91
-51 -137 -74 -156 -239 -286 -406 -320 -74 -15 -2830 -15 -2904 0 -167 34
-332 164 -406 320 -22 46 -45 108 -51 137 -7 34 -11 228 -11 543 0 320 -4 505
-11 533 -32 129 -182 195 -300 133z"/>
</g>
</svg>
