<?xml version="1.0" standalone="no"?>
<!DOCTYPE svg PUBLIC "-//W3C//DTD SVG 20010904//EN"
 "http://www.w3.org/TR/2001/REC-SVG-20010904/DTD/svg10.dtd">
<svg version="1.0" xmlns="http://www.w3.org/2000/svg"
 width="512.000000pt" height="512.000000pt" viewBox="0 0 512.000000 512.000000"
 preserveAspectRatio="xMidYMid meet">

<g transform="translate(0.000000,512.000000) scale(0.100000,-0.100000)"
fill="#000000" stroke="none">
<path d="M2183 4782 c-67 -24 -118 -64 -154 -121 -33 -51 -43 -83 -89 -284
-32 -138 -32 -139 -67 -153 l-34 -15 -159 96 c-217 131 -278 147 -397 104 -53
-19 -80 -44 -296 -258 -278 -276 -292 -296 -292 -426 0 -93 3 -99 134 -304
l88 -138 -14 -36 c-14 -35 -17 -36 -111 -57 -53 -12 -136 -31 -184 -42 -149
-34 -240 -107 -273 -223 -13 -45 -16 -108 -13 -387 l3 -333 28 -57 c53 -108
114 -144 329 -193 84 -19 163 -37 176 -40 15 -4 29 -19 38 -41 l15 -36 -77
-122 c-109 -170 -133 -216 -145 -278 -14 -68 7 -159 50 -221 16 -23 128 -140
248 -259 238 -237 267 -257 377 -265 88 -6 132 11 306 121 135 86 157 97 186
92 17 -4 36 -12 41 -19 5 -6 27 -88 48 -182 21 -93 47 -188 58 -210 27 -55 83
-112 142 -143 l50 -27 338 -3 c375 -3 406 0 486 58 81 59 103 108 161 363 l32
137 36 15 35 15 121 -77 c169 -108 216 -132 278 -144 68 -14 159 7 221 50 23
16 140 128 259 248 238 240 257 267 265 377 6 88 -11 132 -120 303 -54 84 -97
159 -97 168 0 9 6 28 14 43 13 25 27 30 188 66 95 21 193 49 218 61 55 28 110
85 141 145 24 44 24 50 27 383 3 283 0 347 -13 392 -33 116 -123 189 -276 224
-298 69 -269 60 -286 98 l-14 35 77 122 c109 170 133 216 145 278 14 69 -7
159 -51 223 -46 67 -464 466 -518 495 -39 21 -61 25 -132 25 -99 0 -101 -1
-310 -134 -137 -88 -137 -88 -171 -74 -18 7 -34 15 -36 16 -1 2 -21 84 -44
182 -23 99 -50 197 -61 218 -26 53 -91 115 -147 141 -44 20 -62 21 -386 23
-306 3 -345 1 -392 -15z m691 -509 c27 -120 57 -231 67 -248 23 -38 36 -46
147 -89 49 -19 108 -44 130 -55 49 -25 111 -27 154 -5 18 9 103 64 190 122
l158 105 168 -163 c92 -90 179 -175 195 -190 l27 -26 -120 -189 c-66 -103
-123 -204 -126 -223 -7 -39 -3 -55 55 -197 59 -143 71 -163 105 -184 17 -11
126 -40 242 -66 l211 -48 6 -141 c8 -168 9 -396 2 -396 -8 0 -366 -80 -408
-91 -56 -15 -103 -61 -123 -122 -9 -29 -34 -91 -55 -138 -60 -135 -60 -136 79
-346 65 -98 121 -183 124 -189 4 -6 -79 -97 -185 -202 l-192 -192 -189 120
c-104 66 -204 122 -223 126 -34 6 -45 3 -203 -60 -104 -42 -152 -69 -173 -98
-14 -19 -32 -90 -59 -235 -22 -114 -40 -208 -41 -209 -1 -1 -124 -5 -272 -9
l-270 -7 -49 218 c-27 121 -57 233 -68 251 -15 26 -87 73 -111 73 -3 0 -55 21
-114 46 -86 37 -115 45 -146 41 -28 -4 -91 -40 -224 -128 l-184 -123 -190 190
c-104 104 -189 193 -189 197 0 5 51 89 114 187 62 98 116 194 120 213 7 37 4
47 -59 202 -81 202 -66 191 -343 246 l-212 42 0 71 c0 39 -3 161 -7 271 l-6
200 199 44 c109 24 214 49 232 55 47 16 86 58 107 113 10 26 36 91 57 142 56
133 56 133 -93 358 l-123 184 190 190 c104 104 193 189 198 189 4 0 83 -48
175 -107 91 -59 184 -113 205 -120 44 -16 82 -10 141 20 22 11 79 34 128 53
95 35 120 52 143 97 12 23 59 237 88 399 l7 37 142 4 c78 1 201 4 272 5 l131
2 48 -217z"/>
<path d="M2410 3509 c-135 -24 -286 -85 -397 -160 -82 -55 -224 -208 -274
-295 -57 -99 -82 -158 -110 -264 -30 -110 -33 -337 -6 -444 89 -356 349 -621
706 -718 101 -28 341 -31 445 -5 185 46 324 125 461 262 136 136 206 257 257
445 32 118 32 336 0 457 -47 180 -126 320 -256 449 -128 128 -270 210 -445
255 -89 23 -297 33 -381 18z m285 -324 c113 -23 227 -87 316 -176 251 -249
251 -647 -1 -899 -252 -252 -650 -252 -899 -1 -254 254 -254 649 -2 902 156
155 370 219 586 174z"/>
</g>
</svg>
