<?xml version="1.0" standalone="no"?>
<!DOCTYPE svg PUBLIC "-//W3C//DTD SVG 20010904//EN"
 "http://www.w3.org/TR/2001/REC-SVG-20010904/DTD/svg10.dtd">
<svg version="1.0" xmlns="http://www.w3.org/2000/svg"
 width="512.000000pt" height="512.000000pt" viewBox="0 0 512.000000 512.000000"
 preserveAspectRatio="xMidYMid meet">

<g transform="translate(0.000000,512.000000) scale(0.100000,-0.100000)"
fill="#000000" stroke="none">
<path d="M2436 4309 c-97 -23 -235 -117 -288 -196 -14 -22 -16 -22 -69 -8 -71
19 -210 19 -283 0 -131 -34 -266 -131 -335 -240 l-31 -49 -71 -3 c-154 -6
-275 -59 -385 -168 -73 -71 -111 -133 -148 -239 l-21 -59 -105 -32 c-163 -49
-259 -103 -299 -169 -30 -48 -405 -1688 -397 -1736 44 -273 943 -533 2076
-600 212 -13 748 -13 960 0 769 46 1448 180 1815 360 161 79 248 159 261 240
8 48 -367 1688 -397 1736 -40 66 -136 120 -299 169 l-105 32 -21 59 c-34 98
-71 160 -133 226 -104 112 -242 175 -394 181 l-77 3 -31 49 c-69 109 -204 206
-335 240 -73 19 -212 19 -283 0 -53 -14 -55 -14 -69 8 -55 81 -190 173 -292
196 -54 13 -190 12 -244 0z m236 -185 c68 -22 132 -75 174 -146 19 -34 43 -68
52 -75 25 -18 64 -16 119 8 199 86 425 1 524 -196 40 -80 58 -90 150 -82 184
15 336 -69 412 -231 29 -61 32 -76 32 -162 0 -83 -4 -103 -28 -154 -32 -69
-80 -131 -136 -175 -37 -29 -50 -33 -193 -51 -693 -88 -1683 -90 -2408 -4
-156 18 -176 24 -240 75 -157 124 -196 353 -89 520 83 130 223 196 388 182 92
-8 110 2 150 82 99 197 325 282 524 196 55 -24 94 -26 119 -8 9 7 32 40 52 74
84 143 233 198 398 147z m-1854 -1021 c7 -32 23 -80 37 -108 13 -27 22 -51 20
-53 -15 -15 -315 96 -315 117 0 17 186 96 235 100 6 1 17 -25 23 -56z m3560
41 c66 -19 182 -73 182 -85 0 -21 -300 -132 -315 -117 -2 2 7 26 20 53 14 28
30 76 37 108 6 31 14 57 16 57 2 0 29 -7 60 -16z m-3800 -298 c195 -82 524
-145 962 -186 349 -32 589 -42 1020 -42 909 0 1639 84 1984 229 32 13 62 21
66 16 4 -4 80 -327 169 -717 l162 -709 -23 -24 c-33 -36 -228 -128 -365 -173
-715 -233 -1832 -322 -2823 -224 -434 42 -855 124 -1163 224 -137 45 -332 137
-365 173 l-23 24 161 704 c88 387 163 710 165 717 6 16 6 16 73 -12z"/>
<path d="M1370 2526 c-73 -21 -130 -55 -187 -112 -127 -127 -155 -313 -73
-480 l30 -61 -31 -61 c-79 -160 -54 -343 66 -471 90 -96 190 -136 324 -129 71
3 99 10 154 35 108 51 188 144 222 258 l12 40 673 0 673 0 12 -40 c34 -114
114 -207 222 -258 55 -25 83 -32 154 -35 134 -7 234 33 324 129 120 128 145
311 66 471 l-31 61 30 61 c82 167 54 353 -73 480 -114 114 -267 153 -419 106
-132 -41 -241 -154 -277 -288 l-12 -42 -669 0 -669 0 -12 42 c-58 218 -294
354 -509 294z m205 -185 c80 -37 128 -109 141 -212 8 -70 25 -96 71 -108 52
-15 1494 -15 1546 0 46 12 63 38 71 108 13 103 61 175 141 212 78 36 198 16
264 -44 13 -12 34 -44 47 -72 44 -92 25 -192 -51 -277 -51 -56 -50 -94 2 -152
94 -103 96 -243 5 -339 -101 -107 -285 -89 -367 35 -18 28 -31 67 -40 121 -21
129 70 117 -845 117 -915 0 -824 12 -845 -117 -9 -54 -22 -93 -40 -121 -82
-124 -266 -142 -367 -35 -91 96 -89 236 5 339 52 58 53 96 2 152 -93 104 -98
247 -12 341 60 65 190 90 272 52z"/>
</g>
</svg>
