<?xml version="1.0" standalone="no"?>
<!DOCTYPE svg PUBLIC "-//W3C//DTD SVG 20010904//EN"
 "http://www.w3.org/TR/2001/REC-SVG-20010904/DTD/svg10.dtd">
<svg version="1.0" xmlns="http://www.w3.org/2000/svg"
 width="512.000000pt" height="512.000000pt" viewBox="0 0 512.000000 512.000000"
 preserveAspectRatio="xMidYMid meet">

<g transform="translate(0.000000,512.000000) scale(0.100000,-0.100000)"
fill="#000000" stroke="none">
<path d="M1525 5026 c-114 -23 -204 -61 -266 -113 -31 -26 -40 -28 -148 -34
-103 -5 -123 -9 -181 -37 -36 -17 -89 -52 -118 -78 -66 -58 -485 -617 -523
-697 -129 -274 13 -627 301 -743 l55 -23 22 -88 c43 -165 138 -320 227 -368
20 -11 36 -23 36 -28 0 -4 -18 -31 -40 -59 -53 -67 -114 -194 -141 -294 -17
-62 -23 -117 -27 -259 l-4 -180 -38 -76 c-181 -358 -293 -816 -277 -1126 l5
-103 -180 0 c-177 0 -179 0 -203 -25 -68 -67 8 -315 135 -443 70 -70 121 -103
219 -141 l66 -26 1110 -3 c858 -2 1120 0 1155 10 56 15 144 99 155 146 3 18
10 32 15 32 5 0 12 -14 15 -32 11 -47 99 -131 155 -146 35 -10 253 -12 945
-10 l900 3 50 27 c60 32 115 87 146 148 20 38 23 60 23 140 0 97 -16 150 -62
202 -12 15 -15 52 -17 195 -2 199 -20 314 -79 520 -44 153 -93 277 -172 435
-53 105 -64 136 -64 177 0 114 -43 265 -104 361 l-34 54 47 32 c91 61 176 175
214 285 5 15 13 15 94 -2 48 -10 98 -18 111 -19 33 0 72 43 72 80 0 53 -33 75
-143 94 l-97 18 0 128 0 128 97 18 c110 19 143 41 143 94 0 37 -39 80 -72 80
-13 -1 -52 -7 -88 -15 -36 -8 -68 -14 -72 -15 -5 0 -8 172 -8 383 0 377 0 383
-22 427 -37 73 -114 111 -193 96 -22 -4 -91 -49 -190 -121 l-155 -114 -72 25
c-205 70 -451 70 -656 0 l-73 -25 -142 106 c-78 58 -156 112 -174 119 -42 18
-85 18 -129 -1 l-35 -14 -219 293 c-124 167 -242 314 -272 340 -29 26 -82 61
-118 78 -58 28 -78 32 -181 37 -108 6 -117 8 -149 34 -45 38 -121 76 -200 99
-87 25 -281 32 -375 14z m296 -160 c229 -49 345 -200 507 -663 33 -94 92 -247
130 -340 89 -212 107 -296 99 -453 -7 -129 -25 -207 -68 -291 -51 -102 -114
-159 -177 -159 l-29 0 18 53 c60 173 -47 528 -227 756 -178 225 -387 287 -592
176 -190 -103 -371 -395 -426 -685 -21 -107 -20 -183 3 -247 l18 -53 -29 0
c-63 0 -126 57 -177 159 -43 85 -61 162 -68 291 -8 160 9 237 97 449 39 95 99
249 132 343 137 391 233 544 388 623 103 52 268 69 401 41z m-774 -208 c-46
-82 -94 -201 -172 -418 -34 -96 -86 -231 -115 -300 -78 -185 -99 -254 -112
-362 -6 -54 -15 -98 -18 -98 -20 0 -107 70 -140 112 -60 76 -84 147 -83 253 0
59 5 105 16 134 20 50 395 560 471 639 51 52 133 102 169 102 17 0 15 -7 -16
-62z m1319 37 c27 -13 72 -48 100 -77 75 -78 448 -586 468 -637 64 -166 -2
-371 -150 -470 -26 -17 -50 -31 -54 -31 -3 0 -12 44 -18 98 -13 108 -34 177
-112 362 -29 69 -81 204 -115 300 -78 217 -126 336 -172 418 -31 55 -33 62
-16 62 11 0 41 -11 69 -25z m888 -777 c58 -43 106 -81 106 -85 -1 -5 -24 -26
-52 -48 -44 -35 -140 -145 -175 -201 -9 -15 -12 25 -12 192 -1 116 2 214 6
218 10 10 12 8 127 -76z m1463 -139 c2 -170 0 -210 -10 -195 -36 57 -131 166
-175 201 -28 22 -51 43 -52 47 0 11 214 168 225 164 6 -1 11 -85 12 -217z
m-2930 33 c168 -86 347 -398 370 -646 7 -81 -8 -129 -50 -155 -64 -38 -137
-46 -437 -46 -321 1 -382 10 -437 67 -26 28 -28 35 -27 111 2 215 160 528 324
642 85 59 175 68 257 27z m2053 -187 c0 -216 0 -216 25 -240 15 -16 36 -25 55
-25 19 0 40 9 55 25 25 24 25 24 25 239 l0 216 33 -6 c17 -3 53 -10 80 -16
l47 -10 0 -119 c0 -114 1 -121 25 -144 15 -16 36 -25 55 -25 19 0 40 9 55 25
23 22 25 32 25 110 l0 86 32 -18 c18 -10 68 -54 112 -98 89 -88 152 -189 191
-302 41 -121 42 -112 -6 -119 -84 -14 -117 -87 -63 -141 23 -23 30 -25 80 -18
l54 6 0 -91 0 -91 -54 6 c-50 7 -57 5 -80 -18 -53 -53 -20 -127 62 -140 40 -7
41 -8 31 -35 -77 -203 -288 -282 -759 -282 -471 0 -682 79 -759 282 -10 27 -9
28 31 35 82 13 115 87 62 140 -23 23 -30 25 -80 18 l-54 -6 0 91 0 91 54 -6
c50 -7 57 -5 80 18 53 53 20 128 -63 142 -47 8 -47 -2 -6 118 39 113 102 214
191 302 44 44 94 88 112 98 l32 18 0 -86 c0 -78 2 -88 25 -110 32 -33 78 -33
110 0 24 23 25 30 25 144 l0 120 53 10 c67 14 90 18 100 20 4 0 7 -96 7 -214z
m-880 -280 c0 -52 -3 -95 -7 -95 -5 1 -37 7 -73 15 -36 8 -75 14 -88 15 -33 0
-72 -43 -72 -80 0 -52 32 -73 143 -94 l97 -18 0 -128 0 -128 -97 -18 c-111
-21 -143 -42 -143 -94 0 -37 39 -80 72 -80 13 1 63 9 111 19 81 17 89 17 94 2
38 -111 130 -232 218 -287 l43 -28 -18 -26 c-62 -88 -108 -227 -117 -354 -6
-87 -10 -97 -79 -239 -39 -81 -89 -195 -110 -254 -38 -107 -38 -107 -48 -73
-45 171 -132 402 -204 547 l-40 78 -5 180 c-4 140 -9 198 -26 259 -26 97 -86
223 -141 294 -46 60 -48 68 -19 77 11 4 46 32 78 63 70 69 131 186 164 315
l22 88 55 23 c58 23 137 73 159 100 25 30 31 16 31 -79z m-673 -619 c75 -80
127 -169 165 -281 l23 -70 3 -907 3 -908 -96 0 c-88 0 -98 -2 -120 -25 -33
-32 -33 -78 0 -110 24 -25 26 -25 215 -25 189 0 191 0 215 -25 16 -15 25 -36
25 -55 0 -19 -9 -40 -25 -55 l-24 -25 -351 0 -351 0 -24 25 c-24 23 -25 31
-25 135 0 104 -1 112 -25 135 -13 14 -35 25 -49 25 -78 0 -86 25 -86 275 0
156 3 207 13 209 6 2 43 12 80 21 268 68 369 349 266 742 -58 223 -181 412
-312 480 -43 23 -65 27 -127 27 -62 0 -84 -4 -127 -27 -267 -139 -441 -722
-303 -1013 55 -113 138 -179 271 -213 l74 -19 3 -198 c1 -110 0 -209 -3 -222
-9 -35 -42 -62 -75 -62 -19 0 -40 -9 -55 -25 -24 -23 -25 -31 -25 -135 0 -104
-1 -112 -25 -135 l-24 -25 -351 0 -351 0 -24 25 c-16 15 -25 36 -25 55 0 19 9
40 25 55 24 25 26 25 215 25 189 0 191 0 215 25 16 15 25 36 25 55 0 19 -9 40
-25 55 -22 23 -32 25 -120 25 l-96 0 3 908 3 907 23 70 c38 112 90 201 165
281 l69 74 538 0 538 0 69 -74z m1373 -475 c221 -21 538 -10 698 23 l63 13 25
-30 c30 -36 70 -113 91 -176 10 -31 17 -103 20 -223 l5 -178 -56 0 c-47 0 -61
-4 -81 -25 -16 -15 -25 -36 -25 -55 0 -51 38 -80 105 -80 l55 0 0 -80 0 -80
-55 0 c-67 0 -105 -29 -105 -80 0 -51 38 -80 105 -80 l55 0 0 -240 0 -240
-280 0 -280 0 0 83 0 82 51 18 c68 25 130 88 160 163 20 51 23 76 23 189 0
110 -4 145 -27 229 -34 124 -74 209 -129 271 -119 135 -266 105 -371 -76 -39
-66 -84 -213 -98 -314 -31 -241 34 -410 180 -462 l51 -18 0 -81 0 -82 -127 -4
c-115 -3 -133 -6 -178 -30 -80 -42 -164 -146 -166 -205 0 -10 -5 -2 -12 17 -8
24 -23 40 -44 50 l-33 15 0 318 0 317 55 0 c67 0 105 29 105 80 0 51 -38 80
-105 80 l-55 0 0 80 0 80 55 0 c67 0 105 29 105 80 0 51 -38 80 -105 80 l-55
0 0 148 c0 87 6 174 14 213 16 72 60 169 100 216 l25 30 63 -13 c35 -7 115
-18 178 -23z m-1924 -107 c140 -67 278 -418 261 -664 -9 -132 -55 -209 -151
-252 -44 -19 -67 -23 -166 -23 -99 0 -122 4 -166 23 -96 43 -142 120 -151 252
-20 289 161 678 315 680 13 0 39 -7 58 -16z m2198 -470 c24 -9 74 -95 100
-172 51 -148 59 -325 19 -395 -51 -89 -215 -89 -266 0 -40 70 -32 247 19 395
24 72 76 163 97 172 7 2 13 5 14 5 1 1 8 -2 17 -5z m-3214 -578 l0 -533 -32
-6 c-18 -3 -40 -8 -49 -11 -11 -5 -20 8 -37 56 -57 164 -55 377 4 660 23 112
100 368 109 368 3 0 5 -240 5 -534z m1963 427 c122 -380 149 -708 75 -921 -17
-48 -26 -61 -37 -56 -9 3 -31 8 -48 11 l-33 6 0 533 c0 294 2 534 4 534 3 0
21 -48 39 -107z m437 -493 c0 -453 -1 -470 -19 -470 -10 0 -37 -7 -60 -15
l-41 -14 -17 57 c-29 94 -24 341 11 507 24 114 112 405 122 405 2 0 4 -211 4
-470z m1664 301 c20 -60 47 -166 61 -236 25 -120 44 -337 33 -366 -4 -11 -24
-13 -82 -11 l-76 4 0 391 c1 438 -3 425 64 218z m-4310 -836 c27 -61 28 -68
16 -110 -7 -25 -10 -65 -8 -90 5 -37 3 -45 -11 -45 -31 0 -141 59 -185 101
-43 39 -116 163 -116 195 0 11 28 14 138 14 l137 -1 29 -64z m3366 -95 l0
-160 -101 0 c-115 0 -156 14 -192 64 -31 44 -31 148 0 192 36 51 75 64 191 64
l102 0 0 -160z m400 105 c0 -67 29 -105 80 -105 51 0 80 38 80 105 l0 55 80 0
80 0 0 -55 c0 -67 29 -105 80 -105 51 0 80 38 80 105 l0 55 61 0 c110 0 169
-49 177 -145 6 -69 -23 -127 -78 -155 -37 -19 -58 -20 -460 -20 l-420 0 0 160
0 160 120 0 120 0 0 -55z m-2530 -65 c14 -11 31 -20 38 -20 8 0 12 -20 12 -67
0 -38 3 -78 6 -90 6 -23 5 -23 -86 -23 -91 0 -92 0 -86 23 3 12 6 52 6 90 0
47 4 67 13 67 6 0 23 9 37 20 14 11 27 20 30 20 3 0 16 -9 30 -20z m1673 -162
l16 -38 -145 0 c-183 0 -214 13 -214 86 0 14 11 36 25 49 23 24 31 25 135 25
102 0 113 2 133 23 l22 22 6 -65 c4 -36 14 -82 22 -102z m-496 95 c-10 -10
-16 0 -22 38 l-6 34 17 -32 c10 -18 14 -36 11 -40z"/>
<path d="M1305 4215 c-14 -13 -25 -36 -25 -50 0 -32 50 -85 80 -85 30 0 80 53
80 85 0 36 -41 75 -80 75 -19 0 -40 -9 -55 -25z"/>
<path d="M1945 4215 c-14 -13 -25 -36 -25 -50 0 -32 50 -85 80 -85 30 0 80 53
80 85 0 36 -41 75 -80 75 -19 0 -40 -9 -55 -25z"/>
<path d="M1615 3666 c-65 -28 -109 -115 -89 -175 5 -14 23 -33 41 -41 30 -14
33 -19 33 -61 0 -35 -5 -51 -23 -67 -28 -26 -77 -42 -130 -42 -77 0 -115 -83
-62 -135 18 -19 35 -25 67 -25 57 0 153 25 195 51 l33 21 33 -21 c42 -26 138
-51 195 -51 32 0 49 6 67 25 53 52 15 135 -62 135 -53 0 -102 16 -130 42 -18
16 -23 32 -23 67 0 42 3 47 33 61 38 18 52 53 43 103 -18 96 -130 153 -221
113z"/>
<path d="M3465 3255 c-16 -15 -25 -36 -25 -55 0 -19 9 -40 25 -55 15 -16 36
-25 55 -25 19 0 40 9 55 25 16 15 25 36 25 55 0 19 -9 40 -25 55 -15 16 -36
25 -55 25 -19 0 -40 -9 -55 -25z"/>
<path d="M4265 3255 c-16 -15 -25 -36 -25 -55 0 -19 9 -40 25 -55 15 -16 36
-25 55 -25 19 0 40 9 55 25 16 15 25 36 25 55 0 19 -9 40 -25 55 -15 16 -36
25 -55 25 -19 0 -40 -9 -55 -25z"/>
<path d="M3855 3106 c-65 -28 -109 -115 -89 -175 5 -15 23 -33 42 -41 30 -14
32 -18 30 -60 -3 -44 -5 -46 -71 -91 -38 -25 -73 -52 -78 -60 -16 -26 -10 -69
16 -94 36 -37 73 -32 149 19 l66 44 66 -44 c41 -27 77 -44 95 -44 40 0 79 40
79 80 0 35 -19 56 -104 113 -53 36 -56 40 -56 80 0 37 4 44 33 57 38 18 52 53
43 103 -18 96 -130 153 -221 113z"/>
</g>
</svg>
