<?xml version="1.0" standalone="no"?>
<!DOCTYPE svg PUBLIC "-//W3C//DTD SVG 20010904//EN"
 "http://www.w3.org/TR/2001/REC-SVG-20010904/DTD/svg10.dtd">
<svg version="1.0" xmlns="http://www.w3.org/2000/svg"
 width="512.000000pt" height="512.000000pt" viewBox="0 0 512.000000 512.000000"
 preserveAspectRatio="xMidYMid meet">

<g transform="translate(0.000000,512.000000) scale(0.100000,-0.100000)"
fill="#000000" stroke="none">
<path d="M1955 4738 c-224 -118 -1755 -964 -1770 -979 -20 -19 -20 -34 -23
-1024 l-2 -1004 27 -30 c43 -46 1791 -1001 1832 -1001 22 0 121 46 314 147
155 80 287 146 292 146 6 0 258 -140 560 -312 303 -172 564 -315 582 -318 28
-5 102 34 585 308 304 173 564 324 578 336 l25 21 3 655 2 655 -23 27 c-13 15
-255 159 -538 320 l-514 292 -5 374 c-3 206 -9 382 -14 392 -11 23 8 12 -971
550 -492 270 -861 467 -875 467 -14 -1 -43 -10 -65 -22z m1725 -1486 l0 -268
-524 -298 c-288 -164 -533 -307 -543 -318 -17 -19 -18 -53 -21 -592 l-2 -572
-73 -37 c-39 -20 -145 -74 -235 -120 l-162 -84 2 870 3 870 765 408 c421 224
771 408 778 408 9 1 12 -59 12 -267z m-2535 -157 l770 -394 3 -866 c1 -476 0
-865 -3 -865 -3 0 -354 192 -780 426 l-775 426 0 834 c0 459 3 834 8 834 4 0
353 -178 777 -395z m3615 -1458 l0 -503 -435 -247 c-239 -136 -437 -247 -440
-247 -3 0 -5 228 -5 508 l0 507 438 241 c240 133 438 242 440 243 1 1 2 -225
2 -502z m-1395 179 l310 -164 3 -506 c1 -311 -1 -506 -7 -506 -5 0 -137 72
-293 161 -156 89 -352 200 -435 248 l-153 86 0 493 0 493 133 -70 c72 -39 272
-144 442 -235z"/>
</g>
</svg>
