<?xml version="1.0" standalone="no"?>
<!DOCTYPE svg PUBLIC "-//W3C//DTD SVG 20010904//EN"
 "http://www.w3.org/TR/2001/REC-SVG-20010904/DTD/svg10.dtd">
<svg version="1.0" xmlns="http://www.w3.org/2000/svg"
 width="512.000000pt" height="512.000000pt" viewBox="0 0 512.000000 512.000000"
 preserveAspectRatio="xMidYMid meet">

<g transform="translate(0.000000,512.000000) scale(0.100000,-0.100000)"
fill="#000000" stroke="none">
<path d="M2410 3915 c-478 -98 -756 -592 -589 -1049 16 -43 47 -108 68 -143
l40 -63 -53 -34 c-29 -18 -86 -62 -126 -97 l-73 -62 -20 29 c-27 37 -121 131
-171 171 l-40 30 27 60 c46 104 60 176 55 293 -4 79 -12 122 -30 172 -133 357
-517 515 -856 352 -95 -46 -220 -167 -270 -261 -90 -171 -95 -388 -12 -558 24
-50 27 -61 14 -68 -8 -5 -41 -30 -73 -57 -119 -99 -218 -253 -267 -415 -25
-83 -27 -107 -32 -306 -5 -241 0 -262 61 -299 31 -19 55 -20 670 -20 l637 0 0
-150 c0 -169 8 -197 63 -230 29 -18 52 -20 263 -20 224 0 232 1 265 23 60 41
72 129 24 181 -33 36 -84 46 -234 46 l-133 0 5 208 c5 238 13 274 87 427 76
158 208 299 348 373 l57 30 96 -47 c118 -58 217 -81 349 -81 132 0 231 23 349
81 l96 47 57 -30 c140 -74 272 -215 348 -373 74 -153 82 -189 87 -427 l5 -208
-425 0 c-233 0 -439 -3 -456 -6 -42 -9 -89 -56 -96 -98 -9 -45 16 -101 57
-126 32 -19 49 -20 553 -20 498 0 521 1 552 20 55 33 63 61 63 230 l0 150 638
0 c614 0 638 1 669 20 61 37 66 58 61 299 -5 199 -7 223 -32 306 -49 162 -148
316 -267 415 -32 27 -65 52 -73 57 -13 7 -10 18 14 68 84 173 78 394 -17 564
-51 94 -168 206 -263 254 -332 167 -725 6 -858 -351 -18 -50 -26 -93 -30 -172
-5 -117 9 -189 55 -293 l27 -60 -40 -30 c-51 -40 -144 -134 -171 -171 l-21
-30 -63 56 c-35 30 -92 74 -126 97 l-62 42 39 62 c73 117 119 276 120 417 0
149 -61 334 -154 463 -173 244 -495 371 -786 312z m291 -251 c95 -28 171 -74
239 -143 117 -118 166 -246 157 -411 -11 -212 -123 -378 -317 -469 -231 -108
-518 -28 -664 187 -63 92 -88 166 -94 282 -8 165 41 296 157 411 68 68 136
109 231 140 72 23 217 25 291 3z m-1629 -306 c108 -50 184 -151 208 -276 31
-155 -58 -325 -208 -399 -51 -25 -68 -28 -157 -28 -89 0 -106 3 -157 28 -76
37 -159 128 -188 204 -26 71 -29 186 -5 253 36 103 120 190 224 231 71 29 207
23 283 -13z m3249 17 c104 -37 197 -130 234 -235 24 -67 21 -182 -5 -253 -29
-76 -112 -167 -188 -204 -51 -25 -68 -28 -157 -28 -89 0 -106 3 -157 28 -152
74 -239 243 -208 399 37 188 177 307 361 308 43 0 95 -7 120 -15z m-3711 -890
c59 -37 179 -74 263 -81 101 -9 219 16 324 68 l82 41 49 -36 c63 -47 131 -120
165 -178 l27 -47 -40 -83 c-42 -87 -70 -171 -90 -271 l-11 -58 -565 0 -564 0
0 113 c0 68 6 137 15 172 23 91 78 194 139 262 51 56 137 123 158 123 5 0 26
-11 48 -25z m3316 -15 c185 -92 376 -90 567 6 66 34 68 34 100 18 60 -31 172
-155 211 -235 51 -105 66 -175 66 -306 l0 -113 -564 0 -565 0 -11 58 c-17 86
-58 209 -97 285 l-34 69 27 46 c35 60 114 144 172 182 25 17 46 30 48 30 1 0
37 -18 80 -40z"/>
<path d="M2193 1433 c-36 -7 -81 -56 -89 -97 -15 -84 48 -146 149 -146 106 0
157 40 157 124 0 93 -91 143 -217 119z"/>
</g>
</svg>
