<?xml version="1.0" standalone="no"?>
<!DOCTYPE svg PUBLIC "-//W3C//DTD SVG 20010904//EN"
 "http://www.w3.org/TR/2001/REC-SVG-20010904/DTD/svg10.dtd">
<svg version="1.0" xmlns="http://www.w3.org/2000/svg"
 width="512.000000pt" height="512.000000pt" viewBox="0 0 512.000000 512.000000"
 preserveAspectRatio="xMidYMid meet">

<g transform="translate(0.000000,512.000000) scale(0.100000,-0.100000)"
fill="#000000" stroke="none">
<path d="M195 5113 c-87 -19 -133 -52 -168 -117 l-22 -41 0 -2185 0 -2185 28
-47 c52 -89 0 -76 1212 -318 1252 -250 1159 -239 1246 -151 56 56 69 103 69
256 l0 105 554 0 554 0 53 28 c39 20 62 41 84 77 l30 48 0 697 0 697 -30 49
c-36 59 -114 104 -179 104 -50 0 -112 -28 -148 -66 -59 -63 -58 -53 -58 -659
l0 -555 -430 0 -430 0 0 1705 c0 1214 -3 1719 -11 1757 -9 43 -20 62 -58 98
l-46 46 -380 113 c-209 63 -384 117 -390 122 -5 5 369 9 868 9 l877 0 0 -563
0 -564 23 -44 c78 -148 290 -145 370 5 22 41 22 42 25 700 2 463 -1 676 -9
714 -8 41 -21 66 -51 98 -73 80 69 74 -1852 73 -941 -1 -1720 -3 -1731 -6z"/>
<path d="M4169 3597 c-62 -33 -101 -92 -107 -162 -8 -94 10 -122 178 -290 82
-82 150 -153 150 -157 0 -5 -279 -8 -620 -8 -595 0 -622 -1 -659 -19 -151 -77
-158 -283 -13 -368 l47 -28 624 -3 624 -3 -151 -152 c-159 -161 -182 -195
-182 -272 0 -146 139 -244 280 -197 26 9 133 110 397 375 350 351 361 363 371
412 12 54 5 102 -21 150 -27 51 -697 712 -739 730 -55 22 -127 19 -179 -8z"/>
</g>
</svg>
