<?xml version="1.0" standalone="no"?>
<!DOCTYPE svg PUBLIC "-//W3C//DTD SVG 20010904//EN"
 "http://www.w3.org/TR/2001/REC-SVG-20010904/DTD/svg10.dtd">
<svg version="1.0" xmlns="http://www.w3.org/2000/svg"
 width="512.000000pt" height="512.000000pt" viewBox="0 0 512.000000 512.000000"
 preserveAspectRatio="xMidYMid meet">

<g transform="translate(0.000000,512.000000) scale(0.100000,-0.100000)"
fill="#000000" stroke="none">
<path d="M4055 5074 c-132 -78 -244 -119 -410 -150 -74 -14 -157 -17 -460 -18
-326 -1 -378 -3 -434 -19 -99 -28 -179 -73 -242 -137 l-58 -57 -73 -5 c-134
-9 -249 -83 -311 -203 l-32 -60 -5 -294 -5 -295 -50 -11 c-115 -26 -205 -98
-257 -203 -30 -61 -33 -74 -33 -162 0 -82 4 -103 27 -152 34 -74 113 -152 186
-186 43 -20 78 -27 144 -30 l87 -4 6 -57 c3 -31 12 -92 21 -136 52 -262 225
-504 452 -632 l63 -35 -3 -121 -3 -121 -220 -92 -220 -92 -15 57 c-9 31 -30
87 -48 125 l-32 68 0 262 c0 254 -1 262 -24 311 -44 93 -126 145 -231 145 -95
0 -132 -24 -290 -181 l-141 -139 -59 0 -58 0 -141 139 c-159 157 -196 180
-292 181 -113 0 -216 -78 -243 -187 -6 -24 -11 -149 -11 -293 l0 -251 -31 -60
c-44 -89 -70 -198 -72 -309 -1 -52 1 -111 6 -131 7 -35 7 -36 -32 -48 -53 -15
-81 -52 -81 -106 0 -78 62 -118 147 -94 35 9 48 10 51 1 2 -6 14 -27 28 -47
13 -20 24 -39 24 -44 0 -4 -19 -13 -42 -20 -61 -18 -88 -38 -104 -78 -20 -47
-4 -97 40 -124 43 -26 67 -24 182 15 96 32 101 33 121 16 l22 -17 -45 -44
c-119 -115 -214 -331 -214 -484 l0 -35 -76 0 c-69 0 -78 2 -103 28 -27 26 -28
33 -33 143 -6 135 -29 198 -94 262 -63 63 -127 91 -207 92 -65 0 -70 -2 -98
-33 -34 -37 -38 -79 -12 -123 17 -28 34 -38 109 -58 68 -18 78 -37 85 -165 5
-93 11 -123 34 -174 52 -117 155 -181 305 -190 l87 -5 13 -50 c16 -62 77 -127
136 -145 31 -9 188 -12 610 -12 533 0 572 2 609 19 49 23 89 64 109 113 22 52
22 334 0 449 -23 124 -85 247 -174 342 -66 70 -69 77 -51 86 30 16 50 14 139
-19 108 -39 135 -39 178 4 60 60 41 138 -45 175 -27 11 -54 21 -60 21 -16 0
-15 3 21 60 26 42 36 50 52 45 84 -24 137 -8 162 51 25 60 -6 122 -72 144 -30
10 -34 16 -34 45 0 18 6 37 13 43 13 12 486 212 499 212 4 0 31 -18 60 -40
169 -128 422 -125 596 7 23 18 45 33 48 33 10 0 727 -302 779 -328 180 -90
332 -244 423 -427 53 -108 59 -127 157 -535 108 -451 110 -454 141 -479 70
-55 175 -2 174 87 0 15 -49 221 -109 459 -96 383 -114 443 -160 538 -28 59
-72 137 -98 174 -99 139 -251 277 -394 355 -47 26 -558 244 -826 353 -15 6
-19 253 -4 253 5 0 44 23 87 51 104 68 227 194 291 298 81 131 143 326 143
451 l0 50 58 0 c216 0 387 186 369 401 -16 185 -156 324 -342 338 l-80 6 -6
80 c-4 44 -12 99 -18 123 -12 41 -11 45 16 78 170 212 211 341 220 685 6 233
0 269 -51 300 -46 28 -73 24 -161 -27z m-15 -509 c-16 -85 -89 -229 -150 -297
-64 -72 -179 -150 -262 -177 -111 -36 -191 -43 -510 -39 -348 5 -363 7 -452
89 -74 67 -100 130 -101 234 0 68 4 89 28 137 30 62 83 115 149 150 42 22 52
23 448 29 307 5 428 11 500 23 93 16 273 71 328 100 l27 14 3 -101 c2 -56 -2
-129 -8 -162z m-1688 -202 c5 -126 26 -193 88 -284 l40 -59 -46 -50 c-43 -46
-148 -110 -181 -110 -10 0 -13 47 -13 244 0 145 4 256 10 272 11 27 74 94 90
94 4 0 10 -48 12 -107z m1483 -456 c4 -17 5 -239 3 -492 -4 -450 -4 -462 -27
-530 -82 -247 -252 -422 -486 -501 -115 -39 -286 -45 -405 -15 -144 35 -240
91 -350 201 -78 77 -104 111 -138 180 -76 153 -82 195 -82 579 l0 336 71 33
c51 24 95 56 153 112 l81 78 60 -21 c58 -21 75 -22 440 -22 418 0 459 4 595
64 36 16 68 29 72 30 4 1 10 -14 13 -32z m-1705 -437 l0 -160 -49 0 c-117 0
-195 124 -143 226 11 22 28 46 36 53 23 19 86 40 124 41 l32 0 0 -160z m2019
150 c80 -23 132 -112 111 -189 -21 -79 -76 -121 -160 -121 l-50 0 0 153 c0 85
3 157 7 160 9 10 53 9 92 -3z m-3154 -1140 c43 -44 77 -81 74 -83 -2 -2 -33
-18 -69 -35 -36 -17 -84 -42 -107 -57 l-43 -26 0 118 c0 125 11 163 48 163 10
0 53 -36 97 -80z m909 64 c13 -12 16 -40 16 -141 l0 -125 -32 22 c-18 11 -67
38 -108 58 -41 20 -77 38 -80 40 -9 6 157 162 173 162 9 0 23 -7 31 -16z
m-319 -334 c110 -34 183 -79 267 -161 62 -60 85 -92 117 -160 44 -92 66 -202
55 -276 l-6 -42 -31 16 c-49 25 -103 21 -137 -12 -37 -36 -45 -73 -26 -120 12
-29 26 -41 66 -58 27 -11 50 -24 50 -28 0 -4 -15 -27 -32 -50 -32 -41 -35 -42
-90 -43 -71 -1 -99 -24 -107 -88 -6 -42 -8 -44 -65 -66 -174 -69 -367 -68
-526 4 -58 26 -60 28 -60 64 0 31 -6 44 -32 65 -28 23 -39 27 -80 23 -48 -5
-49 -5 -83 42 -19 26 -35 50 -35 53 0 2 17 7 38 11 94 15 123 140 45 192 -26
16 -85 16 -140 -1 -23 -7 -23 -6 -23 78 0 274 199 505 495 573 86 20 251 12
340 -16z m1510 -73 c66 0 139 5 162 10 23 6 44 8 48 5 3 -3 5 -47 5 -98 0 -92
0 -92 -32 -120 -106 -89 -275 -88 -370 3 -27 26 -28 31 -28 124 l0 96 48 -9
c26 -6 101 -10 167 -11z m-1898 -1263 c92 -22 285 -22 380 0 l72 17 44 -30
c100 -69 191 -206 216 -329 6 -29 11 -114 11 -187 l0 -135 -105 0 c-88 0 -105
3 -105 15 0 22 34 87 65 123 52 62 38 144 -30 176 -41 19 -76 11 -124 -31 -43
-36 -103 -148 -116 -213 -14 -75 -6 -70 -119 -70 l-103 0 -11 55 c-16 79 -58
161 -112 217 -40 42 -51 48 -87 48 -77 0 -129 -73 -100 -142 8 -18 22 -39 31
-47 23 -19 56 -85 56 -111 0 -20 -5 -21 -102 -18 l-103 3 -3 110 c-4 153 10
234 58 330 46 93 101 160 167 204 25 17 48 31 49 31 2 0 33 -7 71 -16z"/>
<path d="M2734 3616 c-91 -40 -84 -165 10 -196 64 -21 136 33 136 100 0 37
-30 81 -65 96 -41 17 -42 17 -81 0z"/>
<path d="M3374 3616 c-91 -40 -84 -165 10 -196 64 -21 136 33 136 100 0 37
-30 81 -65 96 -41 17 -42 17 -81 0z"/>
<path d="M2813 2851 c-140 -88 12 -265 246 -287 115 -11 245 34 323 111 46 45
55 82 32 131 -31 66 -111 80 -172 30 -91 -76 -195 -80 -287 -10 -57 44 -99 52
-142 25z"/>
<path d="M1120 1903 c-40 -27 -49 -45 -50 -91 0 -83 81 -128 159 -88 31 17 51
54 51 97 0 44 -56 99 -102 99 -18 0 -45 -8 -58 -17z"/>
<path d="M1544 1901 c-36 -22 -58 -75 -48 -115 17 -70 115 -99 172 -51 55 46
46 137 -17 169 -40 21 -69 20 -107 -3z"/>
<path d="M1284 1586 c-36 -16 -69 -76 -58 -109 16 -52 75 -157 100 -176 15
-12 40 -21 56 -21 56 0 85 25 129 115 40 81 42 87 30 125 -18 60 -56 80 -151
80 -41 -1 -89 -7 -106 -14z"/>
<path d="M4104 941 c-17 -11 -36 -34 -43 -52 -7 -21 -11 -155 -11 -411 0 -417
2 -433 59 -462 38 -20 64 -20 102 0 57 29 59 45 59 464 0 419 -2 435 -59 464
-40 21 -69 20 -107 -3z"/>
</g>
</svg>
