<?xml version="1.0" standalone="no"?>
<!DOCTYPE svg PUBLIC "-//W3C//DTD SVG 20010904//EN"
 "http://www.w3.org/TR/2001/REC-SVG-20010904/DTD/svg10.dtd">
<svg version="1.0" xmlns="http://www.w3.org/2000/svg"
 width="512.000000pt" height="512.000000pt" viewBox="0 0 512.000000 512.000000"
 preserveAspectRatio="xMidYMid meet">

<g transform="translate(0.000000,512.000000) scale(0.100000,-0.100000)"
fill="#000000" stroke="none">
<path d="M2361 4615 c-100 -23 -159 -44 -253 -92 -252 -129 -434 -354 -510
-633 -20 -74 -23 -107 -22 -255 0 -156 3 -178 27 -260 108 -356 375 -612 733
-702 106 -27 362 -24 468 5 179 49 330 136 456 262 125 126 201 256 257 437
24 80 26 104 27 258 1 148 -2 181 -22 255 -93 341 -350 604 -688 706 -77 23
-110 27 -249 30 -114 3 -178 -1 -224 -11z m417 -337 c103 -37 176 -83 252
-159 126 -124 189 -264 197 -440 10 -208 -49 -363 -196 -510 -69 -69 -103 -94
-171 -128 -194 -95 -406 -95 -600 0 -111 55 -237 178 -293 286 -99 191 -103
422 -12 608 87 176 236 300 428 356 97 29 297 22 395 -13z"/>
<path d="M1757 2454 c-368 -66 -680 -356 -779 -724 -20 -74 -23 -107 -22 -260
0 -160 3 -183 27 -263 83 -272 257 -483 506 -611 114 -59 238 -94 375 -106
144 -13 1248 -13 1392 0 370 33 669 241 825 575 68 146 83 215 83 410 1 203
-16 281 -94 440 -141 286 -406 486 -717 540 -122 21 -1478 21 -1596 -1z m1568
-319 c39 -8 106 -33 150 -54 141 -70 236 -166 305 -306 59 -119 73 -187 68
-325 -7 -186 -63 -314 -193 -445 -118 -118 -244 -177 -415 -195 -111 -12
-1249 -12 -1360 0 -171 18 -297 77 -415 195 -80 80 -125 151 -163 257 -24 66
-27 87 -27 213 0 111 4 152 19 195 64 190 180 326 351 411 137 68 129 67 910
68 578 1 712 -2 770 -14z"/>
</g>
</svg>
